<svg width="75" height="75" viewBox="0 0 75 75" fill="none" xmlns="http://www.w3.org/2000/svg">
<path d="M37.5 0C16.7893 0 0 16.7893 0 37.5C0 58.2107 16.7893 75 37.5 75C58.2107 75 75 58.2107 75 37.5C74.9766 16.799 58.201 0.0234213 37.5 0ZM37.5 72.5C18.17 72.5 2.5 56.83 2.5 37.5C2.5 18.17 18.17 2.5 37.5 2.5C56.83 2.5 72.5 18.17 72.5 37.5C72.478 56.8208 56.8208 72.478 37.5 72.5Z" fill="#FFF7F2"/>
<path d="M37.5 5C19.5507 5 5 19.5507 5 37.5C5 55.4493 19.5507 70 37.5 70C55.4493 70 70 55.4493 70 37.5C69.9793 19.5593 55.4407 5.02067 37.5 5ZM37.5 67.5C20.9315 67.5 7.5 54.0685 7.5 37.5C7.5 20.9315 20.9315 7.5 37.5 7.5C54.0685 7.5 67.5 20.9315 67.5 37.5C67.4807 54.0605 54.0605 67.4807 37.5 67.5Z" fill="#FFF7F2"/>
<path d="M37.5 26.25C41.6421 26.25 45 22.8921 45 18.75C45 14.6079 41.6421 11.25 37.5 11.25C33.3579 11.25 30 14.6079 30 18.75C30.0041 22.8904 33.3596 26.2459 37.5 26.25ZM37.5 13.75C40.2614 13.75 42.5 15.9886 42.5 18.75C42.5 21.5114 40.2614 23.75 37.5 23.75C34.7386 23.75 32.5 21.5114 32.5 18.75C32.5 15.9886 34.7386 13.75 37.5 13.75Z" fill="#FFF7F2"/>
<path d="M54.9086 27.5101H54.8886L41.7636 28.6888C41.3161 28.7297 40.8682 28.7501 40.4198 28.7501H34.5798C34.1323 28.7501 33.6852 28.7301 33.2386 28.6901L20.0911 27.5101C18.0262 27.3478 16.2208 28.8902 16.0586 30.9551C15.8964 33.0199 17.4387 34.8253 19.5036 34.9876L30.1123 35.9501C30.756 36.0082 31.2492 36.5475 31.2498 37.1938V40.0688C31.2503 40.6938 31.1332 41.3133 30.9048 41.8951L24.8898 57.2138C24.0514 59.1082 24.9074 61.3235 26.8017 62.162C28.696 63.0004 30.9114 62.1444 31.7498 60.2501L37.4823 46.2338L43.2686 60.2876C44.1314 62.1343 46.3114 62.9536 48.177 62.1323C50.0426 61.311 50.9105 59.1498 50.1311 57.2663L44.0948 41.8913C43.867 41.3103 43.75 40.6917 43.7498 40.0676V37.1926C43.7504 36.5463 44.2436 36.007 44.8873 35.9488L55.4786 34.9876C57.5438 34.8302 59.0904 33.0284 58.933 30.9632C58.7756 28.898 56.9738 27.3514 54.9086 27.5088V27.5101ZM55.2698 32.5001L44.6611 33.4626C42.7263 33.6291 41.2427 35.2519 41.2498 37.1938V40.0688C41.2493 41.007 41.4253 41.9369 41.7686 42.8101L47.8261 58.2338C48.1205 58.8583 47.853 59.6031 47.2286 59.8976C46.6042 60.192 45.8593 59.9245 45.5648 59.3001L39.7911 45.2838C39.4081 44.3561 38.5035 43.7508 37.4998 43.7508C36.4961 43.7508 35.5915 44.3561 35.2086 45.2838L29.4511 59.2626C29.2721 59.688 28.8732 59.9802 28.4136 60.0225C27.954 60.0648 27.5085 59.8505 27.2548 59.465C27.001 59.0794 26.9804 58.5854 27.2011 58.1801L33.2373 42.8051C33.5783 41.9328 33.7521 41.0041 33.7498 40.0676V37.1926C33.7583 35.2497 32.2744 33.6254 30.3386 33.4588L19.7123 32.5001C19.022 32.4514 18.5018 31.8523 18.5505 31.162C18.5991 30.4716 19.1982 29.9514 19.8886 30.0001L33.0136 31.1788C33.5336 31.2255 34.0548 31.2488 34.5773 31.2488H40.4173C40.9398 31.2488 41.4611 31.2255 41.9811 31.1788L55.0998 30.0001C55.4302 29.9739 55.7573 30.0808 56.0085 30.297C56.2596 30.5132 56.414 30.8208 56.4373 31.1513C56.4645 31.4857 56.3561 31.817 56.1365 32.0706C55.917 32.3243 55.6047 32.479 55.2698 32.5001Z" fill="#FFF7F2"/>
</svg>
