<svg width="512" height="512" viewBox="0 0 512 512" fill="none" xmlns="http://www.w3.org/2000/svg">
<path d="M506 290.65C506.53 251.65 474.82 233.39 473.47 232.65L472.25 231.97L433 218L432.6 217.28L429.11 204.57C431.486 201.117 433.029 197.159 433.615 193.008C434.202 188.857 433.816 184.627 432.49 180.65C433.04 177.28 433.49 173.74 433.81 170.06C436.01 145.38 421.96 125.57 399.53 119.06C400.427 114.816 401.095 110.526 401.53 106.21C402.793 94.1536 403.127 82.0179 402.53 69.9101C402.31 65.5101 401.91 57.3001 397.6 49.6801C386.39 29.9001 361.31 29.7601 338.6 29.0501C315.6 28.3501 286.71 26.6401 243.21 34.5501C236.21 35.8201 228.21 37.6301 221.05 43.1701C206.37 54.5701 205.56 73.2701 205.11 83.4701L204.29 102.22C190.68 97.7701 148.11 92.0001 107.21 94.0001C73.68 95.6401 37.21 92.5101 35.15 135.15C34.5466 147.258 34.8809 159.394 36.15 171.45C37.36 182.88 40.15 198.3 49.77 210.32C47.4275 213.597 45.6683 217.254 44.57 221.13C43.4 225.13 40 236.88 41.04 288.35C33.4702 291.508 26.8058 296.5 21.6486 302.878C16.4913 309.256 13.0035 316.817 11.5 324.88C7.5 345.63 20.91 384.2 26.36 398.56L24.62 412.26L6 412.46V462.46H19V482.92L325 483.8V462.41H335.73C337.911 465.475 340.498 468.231 343.42 470.6C347.57 472.08 352.42 476.91 389.84 476.91C416.57 476.91 446.93 474.7 473.44 472.22L487.51 449.86L481.42 387.29C487.06 371.93 505.61 319.09 506 290.65V290.65Z" fill="#FFF7F2"/>
<path d="M329.74 45.2601C301.791 43.9325 273.781 45.7878 246.25 50.7901C230.09 53.7301 222.87 58.6701 221.77 83.9601C220.67 108.96 217.87 129.02 229.77 140.23C238.47 148.43 251.84 148.39 263.77 147.85C278.32 147.19 292.88 146.53 307.77 145.9L317.77 158.74C319.9 161.49 323 164.56 326.3 163.47C329.24 162.47 330.19 158.82 330.15 155.73C330.11 152.64 329.6 149.29 331.46 145.79C344.75 146.9 359.46 147.63 370.02 139.54C380.46 131.54 383.73 117.43 385.12 104.38C386.313 93.1754 386.648 81.8959 386.12 70.6401C385.46 57.2801 381.72 48.8801 359.44 46.7001C348.84 45.6701 338.23 45.6601 329.74 45.2601V45.2601Z" fill="#E79F79"/>
<path d="M216.88 169.4C215.88 145.89 216.88 129.57 206.46 121.51C202.22 118.23 196.78 117.06 191.46 116.1C163.926 111.099 135.913 109.241 107.96 110.56C99.52 111 88.92 111 78.4 112C55.85 114.23 52.35 123 51.72 136C51.183 147.256 51.5173 158.536 52.72 169.74C54.1 182.79 57.38 196.94 67.82 204.9C78.42 212.98 93.09 212.25 106.38 211.16L130.04 211.26C144.77 211.89 158.49 212.5 173.7 213.18C171.24 224.37 169.7 229.18 171.25 230.93C172.31 232.1 174.25 231.39 175.53 230.5C181.53 226.34 185.29 219.84 188.44 213.13C191.32 212.62 200.68 212.51 208.04 205.6C217.32 196.76 217.42 182.2 216.88 169.4V169.4Z" fill="#A97155"/>
<path d="M245.83 78.4502C242.73 79.4502 240.76 81.2802 242.3 82.8102C244.3 84.8102 250.22 85.0702 255.12 85.1002C271.3 85.1802 354.45 85.1002 366.26 80.8902C368.8 79.9802 370.15 78.2902 368.38 77.0802C366.87 76.0802 363.81 75.7602 361.06 75.5802C328.36 73.4402 256.37 75.0802 245.83 78.4502V78.4502Z" fill="#FFF7F2"/>
<path d="M256.09 96.5301C251.89 96.7101 239.17 97.4101 238.89 101.65C238.79 103.11 240.68 104.41 242.89 105.18C252.74 108.64 293.66 105.95 304.8 104.91C320.37 103.47 319.52 98.4001 313.11 96.8401C306.7 95.2801 262.65 96.2701 256.09 96.5301Z" fill="#FFF7F2"/>
<path d="M108.49 143C107.842 142.826 107.242 142.507 106.737 142.065C106.232 141.623 105.835 141.072 105.576 140.453C105.317 139.834 105.204 139.164 105.244 138.494C105.285 137.825 105.478 137.173 105.81 136.59C108.81 131.45 115.32 124.49 128.45 126.28C148.76 129.04 148.56 148.16 142.45 156.64C136.34 165.12 126.68 173.39 126.45 179.11V181.11C126.39 185.82 121.28 186.44 121.65 186.24C120.881 186.298 120.109 186.185 119.39 185.907C118.671 185.63 118.022 185.196 117.492 184.637C116.961 184.078 116.562 183.407 116.323 182.674C116.084 181.941 116.011 181.165 116.11 180.4C116.76 175.53 119.31 168.4 127.51 161.26C133.15 156.35 137.63 150.35 135.94 143.18C133.33 132.04 120.87 132.18 116.84 135.99C115.537 137.241 114.515 138.755 113.84 140.43C113.424 141.445 112.647 142.269 111.659 142.743C110.671 143.218 109.542 143.31 108.49 143Z" fill="#FFF7F2"/>
<path d="M122.63 199.51C125.27 199.51 127.41 197.37 127.41 194.73C127.41 192.09 125.27 189.95 122.63 189.95C119.99 189.95 117.85 192.09 117.85 194.73C117.85 197.37 119.99 199.51 122.63 199.51Z" fill="#FFF7F2"/>
<path d="M172.89 383.48L189 411L185.6 412L169.4 385.57C168.25 383.69 170.6 382.4 170.4 382.57C170.855 382.392 171.359 382.386 171.818 382.553C172.277 382.721 172.658 383.05 172.89 383.48V383.48Z" fill="#A97155"/>
<path d="M89.4195 215.87C89.4195 215.87 66.0696 206.71 60.5296 225.76C54.9896 244.81 58.6796 318.68 58.6796 318.68L98.6296 311.38L89.4195 215.87Z" fill="#FFB020"/>
<path d="M102.63 269.19L82.2197 298.19C82.2197 298.19 86.6597 326.87 102.63 325.39C118.6 323.91 122.63 299.67 122.63 299.67L123.94 285.18L102.63 269.19Z" fill="#FFC5B6"/>
<path d="M143 238C143 238 143.68 208.39 118.17 203.63C92.6603 198.87 71.7203 218.13 73.3903 238.27C75.0603 258.41 84.7903 278.44 94.9103 279C105.03 279.56 128.35 249.24 128.35 249.24L143 238Z" fill="#FFC364"/>
<path d="M143 238C143.125 248.64 142.119 259.263 140 269.69C138.85 275.3 137.1 281.25 132.58 284.76C124.45 291.06 102.58 289.7 96.8701 275.11C95.065 274.978 93.3217 274.396 91.8 273.415C90.2784 272.435 89.0269 271.089 88.1601 269.5C84.2501 261.96 92.1601 249.38 99.1601 265.08C100.278 260.84 101.173 256.544 101.84 252.21C107.407 250.821 112.64 248.333 117.23 244.89L111.95 251.12C113.25 251.78 114.82 251.12 116.12 250.46C124.883 245.906 132.752 239.809 139.35 232.46C139.32 234.56 140.83 236.55 143 238V238Z" fill="#FFC5B6"/>
<path d="M114.19 272.15C113.974 271.999 113.827 271.769 113.781 271.51C113.734 271.251 113.791 270.984 113.94 270.767C114.088 270.55 114.316 270.4 114.575 270.35C114.833 270.3 115.101 270.354 115.32 270.5C117.433 271.924 119.838 272.859 122.358 273.236C124.879 273.614 127.452 273.424 129.89 272.68C130.143 272.601 130.417 272.625 130.653 272.748C130.888 272.871 131.065 273.082 131.145 273.335C131.224 273.588 131.2 273.863 131.077 274.098C130.954 274.334 130.743 274.511 130.49 274.59C128.71 275.15 118.87 275.37 114.19 272.15V272.15Z" fill="#EF9B84"/>
<path d="M98.7604 280.4C98.6947 280.286 98.6522 280.16 98.6353 280.029C98.6183 279.898 98.6273 279.766 98.6617 279.639C98.7311 279.382 98.8997 279.163 99.1304 279.03C99.3611 278.898 99.6351 278.862 99.892 278.931C100.149 279.001 100.368 279.169 100.5 279.4C100.74 279.83 106.81 289.92 125.5 286.73C125.766 286.685 126.038 286.747 126.257 286.903C126.477 287.059 126.625 287.295 126.67 287.56C126.715 287.825 126.653 288.098 126.498 288.317C126.342 288.536 126.106 288.685 125.84 288.73C111.26 291.2 101.86 285.84 98.7604 280.4Z" fill="#EF9B84"/>
<path d="M104.67 250.32C108.888 248.753 112.89 246.656 116.58 244.08C116.778 243.933 117.023 243.864 117.269 243.887C117.514 243.91 117.743 244.023 117.91 244.204C118.078 244.385 118.172 244.622 118.176 244.868C118.18 245.115 118.092 245.354 117.93 245.54L114.18 250C124.08 248.1 138.37 232 138.53 231.84C138.708 231.654 138.952 231.544 139.209 231.534C139.466 231.523 139.718 231.612 139.912 231.782C140.105 231.952 140.225 232.191 140.247 232.447C140.269 232.704 140.191 232.959 140.03 233.16C139.32 233.96 122.57 252.79 111.82 252.16C111.635 252.149 111.457 252.088 111.305 251.982C111.153 251.876 111.033 251.73 110.96 251.56C110.57 250.66 111.57 250.15 112.3 249.12C110.062 250.368 107.72 251.418 105.3 252.26C105.042 252.344 104.763 252.321 104.522 252.199C104.281 252.076 104.098 251.862 104.015 251.605C103.931 251.348 103.953 251.068 104.076 250.827C104.199 250.586 104.412 250.404 104.67 250.32V250.32Z" fill="#FFB020"/>
<path d="M87.6798 290.43L100.26 308.81L105.26 322.22L115.26 310.39L122.86 297.31L126.7 302.11C126.7 302.11 145.98 308.62 154.7 318.47C160.27 324.78 165.76 397.72 169.31 403.47C171.71 407.34 190.6 435.6 190.6 435.6L38.7598 432.81L47.4298 364.6L51.4298 302.31L79.9998 295.8L87.6798 290.43Z" fill="#A369F7"/>
<path d="M145.5 343.41L149.64 368.85L138.11 414.38H150.53L153.3 366.76L145.5 343.41Z" fill="#8A59D8"/>
<path d="M126.68 302.11C126.68 302.11 119.34 339.42 108.1 354.35C96 333 87.27 312.64 83.19 293.55L80 295.8C80.71 311.34 89.91 332.21 107.25 358.2H111.1C120.33 342.78 126.58 324.44 130.05 303.35L126.68 302.11Z" fill="#FFF7F2"/>
<path d="M92.0801 355.25L124.08 354.53L124.3 396.64L94.7101 397.38L92.0801 355.25Z" fill="#A97155"/>
<path d="M100.06 366.2L117.03 365.16L117.69 372.91L99.8604 373.31L100.06 366.2Z" fill="#BD3234"/>
<path d="M100.26 308.81L88.44 322.22L79.96 295.8L87.67 290.43L100.26 308.81Z" fill="#8A59D8"/>
<path d="M115.25 310.39L122.29 323.15L126.68 302.11L122.84 297.31L115.25 310.39Z" fill="#8A59D8"/>
<path d="M157.92 403.44L182.47 402.44L198.83 413.09L204.15 426.69C198.07 426.69 164.39 427.59 161.77 422.35L157.92 403.44Z" fill="#FFC5B6"/>
<path d="M51.4598 302.31C51.4598 302.31 31.9998 306.74 27.8198 328C23.6398 349.26 48.2198 416.42 59.7498 427.36C71.2798 438.3 161.75 422.36 161.75 422.36C161.75 422.36 164.05 408.83 157.9 403.44L80.8398 398.12L62.4098 343.41C62.4098 343.41 65.6398 310.59 51.4598 302.31V302.31Z" fill="#A369F7"/>
<path d="M154.07 403.68L80.8299 398.61C80.7316 398.607 80.6367 398.574 80.558 398.514C80.4793 398.455 80.4206 398.374 80.3899 398.28C63.2099 346.6 63.1199 348.58 64.0499 348.28C64.9799 347.98 63.7099 346.45 81.2299 397.66C158.06 403.2 154.67 402.25 154.6 403.23C154.583 403.357 154.519 403.474 154.421 403.557C154.323 403.64 154.198 403.684 154.07 403.68V403.68Z" fill="#8A59D8"/>
<path d="M35.5996 466.32V441.09H308.44V467.11L35.5996 466.32Z" fill="#ED6C4D"/>
<path d="M22.5898 428.87V445.82H319.87V425.62L22.5898 428.87Z" fill="#FFAD92"/>
<path d="M414.49 229L465.35 247.14C465.35 247.14 489.8 260.83 489.35 290.46C488.9 320.09 464.51 385.13 464.51 385.13L470.43 445.85L463.73 456.5C463.73 456.5 371.63 465.17 352.43 456.5C349.117 453.247 346.586 449.284 345.027 444.91C343.468 440.536 342.922 435.865 343.43 431.25C345.01 415.1 346.98 369.76 346.98 369.76C346.98 369.76 332.79 375.28 319.78 367.98C306.77 360.68 303.41 358.23 303.41 358.23L304.91 319.3L316.62 325.46L335.48 260.46C336.677 256.316 338.815 252.505 341.728 249.324C344.64 246.143 348.248 243.677 352.27 242.12L379.61 231.52L414.49 229Z" fill="#A97155"/>
<path d="M301.93 320.94L265.56 293.55L246 281.66C244.132 280.525 241.978 279.95 239.793 280.001C237.608 280.053 235.483 280.729 233.67 281.95L224.18 288.35C224.18 288.35 206.73 308.46 209.1 309.67C211.47 310.88 217.1 306.32 217.1 306.32L228.93 295.21C228.93 295.21 225.38 310 236.32 311.48C247.26 312.96 250.52 311.77 250.52 311.77L304.19 356.13L301.93 320.94Z" fill="#FFAD92"/>
<path d="M410.44 199.1L419.62 232.45C419.62 232.45 407.2 248.45 396.85 247.01C386.5 245.57 379.7 231.49 379.7 231.49V219.22L410.44 199.1Z" fill="#FFAD92"/>
<path d="M352.48 168.56C352.48 168.56 347.72 142.79 371.08 135.39C394.44 127.99 419.76 141.22 417.32 168.56C414.88 195.9 406.86 202.92 406.86 202.92L352.48 168.56Z" fill="#1D1D3D"/>
<path d="M352.48 168.56C354.403 182.896 358.659 196.82 365.08 209.78C367.85 215.37 371.48 221.18 377.36 223.29C388.81 227.4 409.69 214.03 410.44 199.1C411.988 198.517 413.379 197.58 414.501 196.364C415.623 195.149 416.446 193.688 416.905 192.099C417.363 190.509 417.444 188.834 417.141 187.208C416.838 185.582 416.16 184.048 415.16 182.73C414.753 182.123 414.23 181.601 413.621 181.196C413.011 180.791 412.328 180.511 411.61 180.37C408.52 179.99 406.31 183.47 405.97 186.56C405.63 189.65 406.25 192.49 406.5 195.25C405.35 196.77 402.77 196.25 401.5 194.76C399.2 192.04 400.17 187.65 394.92 182.33C395.02 174.7 399.39 164.02 393.43 157.14C391.749 155.296 389.486 154.083 387.019 153.703C384.552 153.322 382.03 153.798 379.87 155.05C374.42 158.41 373.35 165.4 362.7 169.35C359.33 170.62 355.22 171.05 352.48 168.56V168.56Z" fill="#FFAD92"/>
<path d="M374.33 213.14C374.065 213.161 373.802 213.076 373.6 212.904C373.397 212.731 373.271 212.485 373.25 212.22C373.229 211.955 373.314 211.692 373.487 211.49C373.659 211.287 373.905 211.161 374.17 211.14C377.739 210.54 381.112 209.095 384.008 206.926C386.905 204.756 389.24 201.926 390.82 198.67C390.945 198.45 391.149 198.286 391.39 198.21C391.631 198.135 391.892 198.153 392.121 198.262C392.349 198.371 392.527 198.563 392.62 198.798C392.713 199.033 392.713 199.295 392.62 199.53C390.902 203.078 388.36 206.162 385.205 208.527C382.051 210.891 378.377 212.466 374.49 213.12L374.33 213.14Z" fill="#ED6C4D"/>
<path d="M382.39 224.74C380.643 224.735 378.9 224.578 377.18 224.27C376.915 224.224 376.679 224.074 376.524 223.853C376.369 223.633 376.309 223.36 376.355 223.095C376.401 222.83 376.551 222.594 376.772 222.439C376.992 222.285 377.265 222.224 377.53 222.27C398.81 226.01 408.31 204.27 408.4 204.09C408.452 203.969 408.527 203.86 408.621 203.768C408.715 203.676 408.827 203.604 408.949 203.555C409.071 203.507 409.201 203.482 409.333 203.484C409.464 203.486 409.594 203.513 409.715 203.565C409.836 203.617 409.945 203.692 410.037 203.786C410.129 203.88 410.201 203.992 410.25 204.114C410.299 204.236 410.323 204.366 410.321 204.498C410.319 204.629 410.292 204.759 410.24 204.88C410.15 205.12 401.55 224.74 382.39 224.74Z" fill="#ED6C4D"/>
<path d="M355.349 274.43L347.069 369.73L340.819 371.27L355.349 274.43Z" fill="#BD3234"/>
<path d="M452.739 293.55L424.959 360.68L403.359 358.2V354.94L423.169 358.2L452.739 293.55Z" fill="#BD3234"/>
<path d="M464.559 385.1C464.559 385.1 448.559 409.94 437.659 409.1C426.759 408.26 406.899 401.1 406.899 401.1V404.95C406.899 404.95 430.899 412.63 438.539 412.04C446.179 411.45 454.539 402.38 458.949 402.48C463.359 402.58 466.249 402.48 466.249 402.48L464.559 385.1Z" fill="#BD3234"/>
<path d="M309.87 320C307.44 332.2 307.51 347.38 308.48 363.64L299.48 360.64C298.26 345.26 297.48 330.13 300.15 317.17L309.87 320Z" fill="#BD3234"/>
<path d="M417.479 224.12L403.359 240.93L412.819 256.77L421.549 231.49L417.479 224.12Z" fill="#BD3234"/>
<path d="M379.7 228.97L393.6 240.45L386.65 255L375.71 233.04L379.7 228.97Z" fill="#BD3234"/>
<path d="M403.36 240.93L393.6 240.45L388.82 250.44L391.72 256.77L379.7 366.76L391.72 378.89L403.36 367.95V256.77L408.36 249.31L403.36 240.93Z" fill="#FFB020"/>
<path d="M397.34 357.7L349.51 341.7L350.16 334.24C350.16 334.24 340.57 334.43 337.61 341.33C336.25 344.636 335.085 348.018 334.12 351.46C333.57 353.375 333.622 355.413 334.267 357.298C334.913 359.183 336.122 360.824 337.73 362C339.818 363.606 342.095 364.949 344.51 366C344.51 366 380.59 389.07 401.28 394.39L397.34 357.7Z" fill="#FFAD92"/>
<path d="M405.72 349.92C405.72 349.92 413.11 389.64 409.86 407.77L398 404.92L393.57 349.92H405.72Z" fill="#BD3234"/>
<path d="M234.41 304.27C233.953 303.902 233.596 303.424 233.372 302.882C233.147 302.339 233.063 301.749 233.127 301.165C233.191 300.582 233.4 300.023 233.736 299.542C234.072 299.06 234.524 298.671 235.05 298.41C243.64 294.12 244.91 290.01 246.34 291.58C246.517 291.777 246.61 292.035 246.596 292.3C246.583 292.564 246.466 292.812 246.27 292.99C238.18 300.37 235.27 299.44 235.11 301.42C234.95 302.96 237.42 303.91 238.95 303.68C246.32 302.63 248.58 300.2 249.2 301.98C249.287 302.23 249.271 302.503 249.157 302.741C249.042 302.979 248.839 303.162 248.59 303.25C245.544 304.319 242.413 305.125 239.23 305.66C238.374 305.773 237.504 305.707 236.675 305.468C235.846 305.229 235.075 304.821 234.41 304.27V304.27Z" fill="#ED6C4D"/>
<path d="M314.17 226.35C311.51 241.68 314.25 257.35 316.56 272.56C297.713 274.906 278.713 275.792 259.73 275.21C259.39 275.21 259.06 275.21 258.73 275.21C247.14 269.07 245.29 262.46 239.57 259.44L239.47 259.39C242.24 228.08 237.77 211.82 236.89 192.85C236.61 186.75 236.71 180.61 236.6 173.44C264.406 173.7 292.21 174.404 320.01 175.55C315.71 197.13 316.31 191.87 317.56 201.16C318.68 209.58 315.62 218 314.17 226.35V226.35Z" fill="#EAE5DB"/>
<path d="M248.1 198.17C249.737 200.915 251.61 203.512 253.7 205.93C254.2 206.5 254.84 207.12 255.59 207.01C257.75 206.69 266.44 195.33 266.5 192.48C266.5 191.3 264.92 190.69 263.84 191.18C261.97 192.03 262.67 193.27 255.46 201.65C253.46 200.52 252.92 197.39 250.57 196.78C249.44 196.48 247.66 197.43 248.1 198.17V198.17Z" fill="#1D1D3D"/>
<path d="M275.31 198.65C280.8 197.65 305.03 192.77 305.22 198.26C305.22 199.43 303.89 200.08 302.75 200.38C298.21 201.57 276.41 205.86 273.85 201.85C273.701 201.548 273.622 201.217 273.616 200.88C273.611 200.544 273.681 200.21 273.821 199.904C273.961 199.597 274.167 199.326 274.425 199.109C274.682 198.892 274.985 198.736 275.31 198.65Z" fill="#FFF7F2"/>
<path d="M248.1 229.87C249.737 232.612 251.611 235.205 253.7 237.62C254.97 239.08 255.7 238.93 256.7 238.05C262.98 232.46 266.47 225.19 266.49 224.17C266.51 223.15 264.91 222.38 263.83 222.87C261.96 223.72 262.66 224.97 255.45 233.35C253.45 232.22 252.91 229.08 250.56 228.47C249.44 228.17 247.66 229.12 248.1 229.87Z" fill="#1D1D3D"/>
<path d="M275.31 230.34C282.328 228.903 289.428 227.901 296.57 227.34C306.25 226.79 307.03 230.91 302.75 232.04C297.3 233.51 283 235.9 276.8 235C272 234.27 273.55 230.67 275.31 230.34Z" fill="#FFF7F2"/>
<path d="M259.73 275.21C259.39 275.21 259.06 275.21 258.73 275.21C247.14 269.07 245.29 262.46 239.57 259.44C248.95 260.04 254.12 257.68 258.63 257.07C258.896 257.007 259.176 257.039 259.42 257.16C259.536 257.26 259.63 257.383 259.697 257.52C259.764 257.658 259.802 257.807 259.81 257.96C260.855 263.665 260.828 269.515 259.73 275.21Z" fill="#FFAD92"/>
<path d="M274.49 380.82C272.75 382.54 271.87 383.12 239.98 384.69C236.34 384.88 229.21 385.24 227.54 381.98C226.6 380.13 226.15 360.82 227.62 357.34C229.97 351.72 236.77 351.04 242.32 350.88C272.32 350.02 272.91 347.74 276.09 353.75C277.423 356.32 278.161 359.156 278.25 362.05C278.47 367.08 277.44 377.87 274.49 380.82V380.82Z" fill="#C72F55"/>
<path d="M277.37 356.83C273.27 360.39 258.37 371.83 254.54 372.05C250.71 372.27 233.71 363.2 227.12 359.05C227.72 355.57 230.6 353.14 233.92 352.05C236.651 351.274 239.481 350.9 242.32 350.94C272.32 350.08 272.91 347.8 276.09 353.81C276.606 354.777 277.034 355.787 277.37 356.83Z" fill="#A97155"/>
</svg>
