<svg width="512" height="512" viewBox="0 0 512 512" fill="none" xmlns="http://www.w3.org/2000/svg">
<path d="M504.816 62.5119C504.753 54.2312 501.432 46.3084 495.571 40.4583C489.71 34.6081 481.781 31.3011 473.5 31.2529L38.7474 29.7529C30.448 29.7787 22.4936 33.0765 16.6105 38.9306C10.7274 44.7847 7.39028 52.7227 7.32344 61.0219C5.90644 340.338 6.00544 320.883 6.00044 321.768C5.91444 338.335 18.4004 352.251 34.3734 352.251L129.826 351.341L128.767 377.721H129.08L126.356 445.589L144.315 445.552L139.922 482.244L198.133 480.816L201.81 445.554C209.676 445.537 240.526 445.378 312.169 445.243L315.878 480.816L374.089 482.244L369.648 445.134L385.774 445.099L382.355 377.242L388.185 377.23L386.755 348.892L477.894 348.022C493.48 347.897 506.089 334.222 506 317.548L504.816 62.5119Z" fill="#FFF7F2"/>
<path d="M493.509 317.606C493.561 327.439 486.53 335.461 477.794 335.531L34.4845 339.759C25.6445 339.829 18.4395 331.772 18.4915 321.835L19.7625 73.0669L19.8145 61.0769C19.8454 56.0629 21.8626 51.2657 25.4239 47.7362C28.9853 44.2067 33.8005 42.2328 38.8145 42.2469L473.458 43.7469C478.45 43.7637 483.233 45.7518 486.766 49.2783C490.299 52.8047 492.296 57.5841 492.322 62.5759L492.375 74.5319L493.509 317.606Z" fill="#EAE5DB"/>
<path d="M359.973 469.403L340.253 304.659L310.015 304.128L327.164 468.598L359.973 469.403Z" fill="#A369F7"/>
<path d="M154.039 469.403L173.759 304.659L203.997 304.128L186.848 468.598L154.039 469.403Z" fill="#A369F7"/>
<path d="M492.379 74.5289L19.7627 73.0669L19.8147 61.0769C19.8456 56.0629 21.8628 51.2657 25.4241 47.7362C28.9855 44.2067 33.8007 42.2328 38.8147 42.2469L473.459 43.7469C478.451 43.7637 483.234 45.7518 486.767 49.2783C490.3 52.8047 492.297 57.5841 492.323 62.5759L492.379 74.5289Z" fill="#B2ACA3"/>
<path d="M264.63 124.89L265.364 150.928L445.963 146.819L445.829 122.803L264.63 124.89Z" fill="#E79F79"/>
<path d="M265.497 174.943L266.368 203.749L340.972 201.222L343.395 175.083L265.497 174.943Z" fill="#7AD001"/>
<path d="M265.606 235.76C264.943 235.773 264.302 235.523 263.824 235.063C263.346 234.604 263.069 233.973 263.056 233.31C263.043 232.647 263.294 232.006 263.753 231.528C264.212 231.049 264.843 230.773 265.506 230.76C331.561 228.16 398.269 229.03 463.976 228.117C464.637 228.115 465.273 228.372 465.746 228.833C466.22 229.294 466.495 229.922 466.511 230.583C466.516 230.911 466.455 231.237 466.334 231.542C466.212 231.847 466.032 232.125 465.803 232.361C465.574 232.596 465.301 232.784 464.999 232.914C464.698 233.043 464.373 233.113 464.045 233.117C398.173 234.028 331.568 233.162 265.703 235.756L265.606 235.76Z" fill="#B2ACA3"/>
<path d="M263 260.136H262.973C262.31 260.139 261.673 259.879 261.201 259.413C260.73 258.946 260.463 258.312 260.46 257.649C260.457 256.986 260.717 256.349 261.183 255.877C261.649 255.406 262.284 255.139 262.947 255.136C299.698 254.747 335.005 256.2 372.566 255.136H372.639C373.302 255.127 373.942 255.381 374.417 255.843C374.892 256.306 375.165 256.938 375.174 257.601C375.183 258.264 374.929 258.904 374.467 259.379C374.004 259.854 373.372 260.127 372.709 260.136C335.006 261.205 299.751 259.745 263 260.136Z" fill="#B2ACA3"/>
<path d="M375.05 364.767L350.878 364.819L311.463 364.889L272.271 364.958L198.364 365.097L150.211 365.184L141.771 365.202L143.719 316.631L178.038 316.805L343.238 317.658L372.683 317.815C375.807 379.762 374.869 361.184 375.05 364.767V364.767Z" fill="#A97155"/>
<path d="M178.038 316.805C168.188 332.59 158.912 348.716 150.211 365.184L141.771 365.202L143.719 316.631L178.038 316.805Z" fill="#FFB020"/>
<path d="M260.777 317.4C250.093 333.324 239.396 349.242 228.687 365.153L189.531 365.222C200.007 349.369 210.228 333.358 220.194 317.191H220.212L260.777 317.4Z" fill="#FFB020"/>
<path d="M343.238 317.658C332.638 333.391 322.046 349.135 311.462 364.889L272.271 364.958C282.591 349.278 292.65 333.442 302.447 317.45L343.238 317.658Z" fill="#FFB020"/>
<path d="M375.051 364.767L350.879 364.819C358.484 353.055 365.944 341.198 373.259 329.248L375.051 364.767Z" fill="#FFB020"/>
<path d="M372.64 432.636L348.468 432.689L309.051 432.758C309.151 432.758 173.411 433.008 147.8 433.058L139.36 433.075L141.309 384.505L175.627 384.679C375.648 385.705 177.549 384.688 300.037 385.323L340.828 385.532L370.273 385.688L370.847 397.122L372.64 432.636Z" fill="#A97155"/>
<path d="M175.627 384.675C165.777 400.459 156.502 416.585 147.8 433.054L139.36 433.071L141.309 384.501L175.627 384.675Z" fill="#FFB020"/>
<path d="M258.367 385.267C247.681 401.19 236.984 417.108 226.276 433.019L187.121 433.089C197.597 417.235 207.818 401.225 217.784 385.058H217.801L258.367 385.267Z" fill="#FFB020"/>
<path d="M340.828 385.528C330.228 401.261 319.636 417.005 309.051 432.758L269.861 432.828C280.181 417.148 290.24 401.312 300.037 385.319L340.828 385.528Z" fill="#FFB020"/>
<path d="M372.641 432.636L348.469 432.689C356.073 420.924 363.533 409.067 370.848 397.118L372.641 432.636Z" fill="#FFB020"/>
<path d="M132.013 118.422L52.0777 256.872C51.3332 258.162 50.9413 259.625 50.9414 261.115C50.9415 262.604 51.3337 264.067 52.0784 265.357C52.8232 266.647 53.8943 267.718 55.1842 268.463C56.4741 269.208 57.9373 269.6 59.4267 269.6H219.295C220.784 269.6 222.247 269.208 223.537 268.463C224.827 267.718 225.898 266.647 226.643 265.357C227.388 264.067 227.78 262.604 227.78 261.115C227.78 259.625 227.388 258.162 226.644 256.872L146.709 118.422C145.964 117.132 144.893 116.06 143.603 115.316C142.313 114.571 140.85 114.179 139.361 114.179C137.871 114.179 136.408 114.571 135.118 115.316C133.828 116.06 132.757 117.132 132.013 118.422V118.422Z" fill="#FFC269"/>
<path d="M136.845 134.416L68.3451 253.061C68.089 253.502 67.9537 254.003 67.9531 254.513C67.9525 255.024 68.0865 255.525 68.3417 255.967C68.5968 256.409 68.964 256.776 69.4062 257.03C69.8484 257.285 70.3499 257.418 70.8601 257.417H207.86C208.37 257.418 208.872 257.285 209.314 257.03C209.756 256.776 210.123 256.409 210.379 255.967C210.634 255.525 210.768 255.024 210.767 254.513C210.767 254.003 210.631 253.502 210.375 253.061L141.875 134.416C141.621 133.973 141.255 133.606 140.813 133.35C140.372 133.094 139.87 132.96 139.36 132.96C138.85 132.96 138.349 133.094 137.907 133.35C137.465 133.606 137.099 133.973 136.845 134.416V134.416Z" fill="#FFB020"/>
<path d="M131.649 223.259L121.579 184.877C121.271 183.705 121.237 182.478 121.478 181.29C121.719 180.103 122.229 178.986 122.969 178.027C123.709 177.067 124.659 176.29 125.747 175.756C126.834 175.221 128.03 174.943 129.242 174.943H148.762C149.963 174.943 151.149 175.217 152.229 175.743C153.31 176.269 154.256 177.034 154.997 177.979C155.738 178.925 156.255 180.027 156.507 181.202C156.76 182.376 156.742 183.593 156.455 184.76L147.001 223.142C145.042 231.117 133.734 231.2 131.649 223.259V223.259Z" fill="#C72F55"/>
<path d="M139.002 244.574C142.259 244.574 144.901 241.933 144.901 238.675C144.901 235.417 142.259 232.776 139.002 232.776C135.744 232.776 133.103 235.417 133.103 238.675C133.103 241.933 135.744 244.574 139.002 244.574Z" fill="#C72F55"/>
</svg>
