<svg width="75" height="75" viewBox="0 0 75 75" fill="none" xmlns="http://www.w3.org/2000/svg">
<path d="M68.3516 39.7195H58.4394C57.9099 39.7177 57.3861 39.6101 56.8987 39.403C56.4114 39.1959 55.9704 38.8934 55.6016 38.5134L49.5205 32.4323C49.4255 32.3381 49.3501 32.226 49.2987 32.1025C49.2472 31.979 49.2207 31.8465 49.2207 31.7127C49.2207 31.5789 49.2472 31.4465 49.2987 31.323C49.3501 31.1994 49.4255 31.0874 49.5205 30.9931C49.7104 30.8044 49.9673 30.6984 50.235 30.6984C50.5028 30.6984 50.7597 30.8044 50.9496 30.9931L57.0813 37.1249C57.2632 37.3115 57.4807 37.4598 57.721 37.5607C57.9612 37.6617 58.2193 37.7134 58.48 37.7127H68.3921C68.6798 37.7106 68.9641 37.6512 69.2286 37.5381C69.4931 37.425 69.7324 37.2604 69.9327 37.0539C70.2464 36.7495 70.4617 36.3581 70.551 35.9302C70.6404 35.5023 70.5995 35.0575 70.4338 34.653C70.2681 34.2485 69.985 33.9029 69.6212 33.6606C69.2573 33.4184 68.8292 33.2906 68.3921 33.2938H60.7908C60.5202 33.2927 60.2525 33.2375 60.0036 33.1313C59.7547 33.0251 59.5295 32.8701 59.3414 32.6756L53.311 26.7465C53.1722 26.5508 53.1074 26.3122 53.128 26.0731C53.1486 25.8341 53.2534 25.6101 53.4237 25.441C53.594 25.272 53.8187 25.1688 54.0579 25.1499C54.2971 25.131 54.5352 25.1975 54.73 25.3377L60.73 31.2769H68.3516C69.4725 31.2769 70.5475 31.7222 71.3401 32.5148C72.1327 33.3074 72.5779 34.3824 72.5779 35.5033C72.5779 36.6242 72.1327 37.6992 71.3401 38.4918C70.5475 39.2843 69.4725 39.7296 68.3516 39.7296V39.7195Z" fill="#FFF7F2"/>
<path d="M49.1046 72.9728C47.9101 72.9675 46.766 72.4906 45.9213 71.646C45.0767 70.8013 44.5998 69.6572 44.5945 68.4627V53.5945C44.5934 53.4374 44.5595 53.2824 44.4949 53.1392C44.4303 52.9961 44.3365 52.8681 44.2195 52.7634L34.662 44.2701C33.1634 42.9314 32.2109 41.0872 31.9865 39.0903C31.7621 37.0933 32.2817 35.0838 33.4458 33.4458L39.5269 24.76L31.9053 24.1012C31.8276 24.0954 31.7497 24.106 31.6763 24.1322C31.603 24.1583 31.536 24.1996 31.4796 24.2533L24.7397 31.0539C24.3866 31.4161 23.964 31.7033 23.4973 31.8984C23.0306 32.0934 22.5293 32.1923 22.0235 32.1891C21.2633 32.19 20.5201 31.9647 19.8883 31.5418C19.2565 31.119 18.7648 30.5178 18.4758 29.8147C18.1867 29.1117 18.1133 28.3385 18.265 27.5936C18.4167 26.8486 18.7866 26.1657 19.3276 25.6316L28.3782 16.7533C28.6914 16.4335 29.0651 16.1792 29.4774 16.0052C29.8898 15.8312 30.3327 15.741 30.7803 15.7397H45.3951C46.3956 15.7389 47.3771 16.0124 48.233 16.5303L53.0776 19.4391C53.6857 19.7999 54.2137 20.2812 54.6292 20.8534C55.0446 21.4256 55.3387 22.0767 55.4934 22.7667C55.6481 23.4567 55.6602 24.1711 55.5288 24.8659C55.3975 25.5607 55.1255 26.2214 54.7296 26.8073L45.608 40.3783L52.5708 46.9357C52.8826 47.2145 53.1336 47.5546 53.308 47.9347C53.4824 48.3149 53.5764 48.727 53.5843 49.1451L53.6958 68.4019C53.7121 69.5946 53.2552 70.7453 52.4251 71.6019C51.595 72.4586 50.4594 72.9515 49.2668 72.9728H49.1046ZM31.8749 22.0742H32.0978L41.4931 22.8749C41.6719 22.8896 41.8435 22.9515 41.9905 23.0543C42.1375 23.1571 42.2546 23.297 42.3299 23.4599C42.4051 23.6227 42.4358 23.8026 42.4187 23.9811C42.4017 24.1597 42.3376 24.3305 42.233 24.4762L35.0573 34.6114C34.1714 35.847 33.7753 37.3674 33.9457 38.8782C34.1161 40.3891 34.8408 41.7831 35.9796 42.7904L45.537 51.2837C45.8603 51.5813 46.1175 51.9435 46.2921 52.3468C46.4667 52.75 46.5547 53.1855 46.5505 53.6249V68.4931C46.5582 68.8294 46.6333 69.1608 46.7714 69.4675C46.9095 69.7743 47.1077 70.0502 47.3544 70.2789C47.6011 70.5077 47.8912 70.6845 48.2075 70.7991C48.5238 70.9136 48.8599 70.9635 49.1958 70.9458C49.8473 70.9272 50.4654 70.6533 50.9166 70.183C51.3679 69.7128 51.6162 69.084 51.608 68.4323L51.4965 49.1756C51.4958 49.0336 51.4668 48.8933 51.4111 48.7627C51.3554 48.6322 51.2742 48.5141 51.1722 48.4154L43.5809 41.3208C43.4067 41.1572 43.2959 40.9373 43.2681 40.6999C43.2403 40.4626 43.2972 40.223 43.4289 40.0235L53.037 25.7431C53.2749 25.3856 53.4376 24.9834 53.5155 24.5611C53.5933 24.1388 53.5845 23.705 53.4898 23.2862C53.395 22.8673 53.2162 22.4721 52.9642 22.1244C52.7121 21.7767 52.3921 21.4838 52.0235 21.2634L47.1789 18.3546C46.6397 18.0221 46.0185 17.8466 45.385 17.8479H30.7701C30.5824 17.8423 30.3956 17.8754 30.2212 17.9451C30.0468 18.0149 29.8887 18.1197 29.7566 18.2533L20.7364 27.1418C20.3997 27.4815 20.2108 27.9405 20.2108 28.4188C20.2108 28.8971 20.3997 29.3561 20.7364 29.6958C20.9054 29.8645 21.1062 29.9979 21.3271 30.0884C21.5481 30.1788 21.7848 30.2246 22.0235 30.2229C22.2667 30.2173 22.5062 30.1623 22.7275 30.0612C22.9488 29.9602 23.1472 29.8152 23.3107 29.635L30.0505 22.8343C30.2859 22.5917 30.5681 22.3993 30.8799 22.2686C31.1917 22.138 31.5267 22.0718 31.8647 22.0742H31.8749Z" fill="#FFF7F2"/>
<path d="M30.8411 57.0202H14.8783C14.289 57.0486 13.7 56.9571 13.1471 56.7512C12.5942 56.5453 12.0889 56.2292 11.6617 55.8222C11.2346 55.4152 10.8945 54.9257 10.6622 54.3833C10.4299 53.841 10.3101 53.2571 10.3101 52.6671C10.3101 52.0771 10.4299 51.4933 10.6622 50.9509C10.8945 50.4086 11.2346 49.9191 11.6617 49.5121C12.0889 49.1051 12.5942 48.789 13.1471 48.5831C13.7 48.3772 14.289 48.2857 14.8783 48.3141H26.3512L32.7566 40.4087C32.926 40.199 33.1717 40.0652 33.4397 40.0367C33.7077 40.0082 33.976 40.0873 34.1857 40.2567C34.3954 40.426 34.5292 40.6717 34.5577 40.9397C34.5862 41.2077 34.5071 41.4761 34.3377 41.6857L27.5675 49.9661C27.4721 50.0837 27.3515 50.1784 27.2147 50.2433C27.0779 50.3082 26.9283 50.3416 26.7769 50.3411H14.8783C14.5599 50.3201 14.2406 50.3647 13.9402 50.472C13.6397 50.5794 13.3645 50.7473 13.1316 50.9654C12.8986 51.1834 12.713 51.447 12.586 51.7397C12.4591 52.0324 12.3936 52.3481 12.3936 52.6671C12.3936 52.9862 12.4591 53.3019 12.586 53.5946C12.713 53.8873 12.8986 54.1509 13.1316 54.3689C13.3645 54.587 13.6397 54.7549 13.9402 54.8622C14.2406 54.9696 14.5599 55.0142 14.8783 54.9932H30.4053L37.8242 45.7803C37.9952 45.5801 38.2374 45.4542 38.4996 45.4294C38.7617 45.4047 39.0232 45.4829 39.2287 45.6475C39.4342 45.8122 39.5676 46.0504 39.6005 46.3116C39.6335 46.5729 39.5635 46.8367 39.4053 47.0472L31.6823 56.6452C31.5817 56.7697 31.453 56.8686 31.3068 56.9338C31.1606 56.9989 31.001 57.0285 30.8411 57.0202Z" fill="#FFF7F2"/>
<path d="M57.0607 17.1385C55.5644 17.1405 54.1012 16.6985 52.8563 15.8685C51.6114 15.0384 50.6407 13.8577 50.0672 12.4757C49.4937 11.0938 49.3431 9.5727 49.6345 8.1051C49.9259 6.6375 50.6463 5.28937 51.7043 4.23136C52.7623 3.17335 54.1104 2.45305 55.578 2.16163C57.0456 1.87022 58.5667 2.02081 59.9486 2.59432C61.3306 3.16784 62.5113 4.1385 63.3414 5.38342C64.1714 6.62834 64.6134 8.09154 64.6114 9.58779C64.6087 11.5895 63.8123 13.5085 62.3969 14.924C60.9814 16.3394 59.0624 17.1358 57.0607 17.1385ZM57.0607 4.054C55.9658 4.052 54.8949 4.37484 53.9835 4.98168C53.0722 5.58852 52.3613 6.45208 51.9409 7.46307C51.5205 8.47406 51.4095 9.58703 51.6219 10.6611C51.8342 11.7353 52.3605 12.7222 53.134 13.4972C53.9075 14.2721 54.8935 14.8001 55.9672 15.0145C57.041 15.2288 58.1541 15.1198 59.1659 14.7013C60.1777 14.2828 61.0425 13.5735 61.651 12.6632C62.2595 11.753 62.5843 10.6827 62.5843 9.58779C62.5817 8.12271 61.9992 6.71825 60.9642 5.68134C59.9292 4.64442 58.5258 4.05936 57.0607 4.054Z" fill="#FFF7F2"/>
<path d="M24.6589 12.7499H14.1893C13.9205 12.7499 13.6627 12.6431 13.4726 12.4531C13.2826 12.263 13.1758 12.0052 13.1758 11.7364C13.1758 11.4676 13.2826 11.2098 13.4726 11.0198C13.6627 10.8297 13.9205 10.7229 14.1893 10.7229H24.6589C24.9277 10.7229 25.1855 10.8297 25.3756 11.0198C25.5656 11.2098 25.6724 11.4676 25.6724 11.7364C25.6724 12.0052 25.5656 12.263 25.3756 12.4531C25.1855 12.6431 24.9277 12.7499 24.6589 12.7499Z" fill="#FFF7F2"/>
<path d="M10.7331 12.7499H9.71957C9.45077 12.7499 9.19298 12.6431 9.00291 12.4531C8.81284 12.263 8.70605 12.0052 8.70605 11.7364C8.70605 11.4676 8.81284 11.2098 9.00291 11.0198C9.19298 10.8297 9.45077 10.7229 9.71957 10.7229H10.7331C11.0019 10.7229 11.2597 10.8297 11.4497 11.0198C11.6398 11.2098 11.7466 11.4676 11.7466 11.7364C11.7466 12.0052 11.6398 12.263 11.4497 12.4531C11.2597 12.6431 11.0019 12.7499 10.7331 12.7499Z" fill="#FFF7F2"/>
<path d="M13.51 19.0541H3.04037C2.77157 19.0541 2.51378 18.9473 2.32371 18.7573C2.13364 18.5672 2.02686 18.3094 2.02686 18.0406C2.02686 17.7718 2.13364 17.514 2.32371 17.324C2.51378 17.1339 2.77157 17.0271 3.04037 17.0271H13.51C13.7788 17.0271 14.0366 17.1339 14.2266 17.324C14.4167 17.514 14.5235 17.7718 14.5235 18.0406C14.5235 18.3094 14.4167 18.5672 14.2266 18.7573C14.0366 18.9473 13.7788 19.0541 13.51 19.0541Z" fill="#FFF7F2"/>
<path d="M17.9797 19.0541H16.9661C16.6973 19.0541 16.4396 18.9473 16.2495 18.7573C16.0594 18.5672 15.9526 18.3094 15.9526 18.0406C15.9526 17.7718 16.0594 17.514 16.2495 17.324C16.4396 17.1339 16.6973 17.0271 16.9661 17.0271H17.9797C18.2485 17.0271 18.5063 17.1339 18.6963 17.324C18.8864 17.514 18.9932 17.7718 18.9932 18.0406C18.9932 18.3094 18.8864 18.5672 18.6963 18.7573C18.5063 18.9473 18.2485 19.0541 17.9797 19.0541Z" fill="#FFF7F2"/>
<path d="M21.2839 36.7094H10.7738C10.505 36.7094 10.2472 36.6026 10.0571 36.4125C9.86703 36.2225 9.76025 35.9647 9.76025 35.6959C9.76025 35.4271 9.86703 35.1693 10.0571 34.9792C10.2472 34.7892 10.505 34.6824 10.7738 34.6824H21.2839C21.5527 34.6824 21.8105 34.7892 22.0006 34.9792C22.1906 35.1693 22.2974 35.4271 22.2974 35.6959C22.2974 35.9647 22.1906 36.2225 22.0006 36.4125C21.8105 36.6026 21.5527 36.7094 21.2839 36.7094Z" fill="#FFF7F2"/>
<path d="M25.7131 36.7094H24.6995C24.4307 36.7094 24.173 36.6026 23.9829 36.4125C23.7928 36.2225 23.686 35.9647 23.686 35.6959C23.686 35.4271 23.7928 35.1693 23.9829 34.9792C24.173 34.7892 24.4307 34.6824 24.6995 34.6824H25.7131C25.9819 34.6824 26.2397 34.7892 26.4297 34.9792C26.6198 35.1693 26.7266 35.4271 26.7266 35.6959C26.7266 35.9647 26.6198 36.2225 26.4297 36.4125C26.2397 36.6026 25.9819 36.7094 25.7131 36.7094Z" fill="#FFF7F2"/>
<path d="M18.2434 43.581H7.73324C7.46444 43.581 7.20665 43.4742 7.01658 43.2841C6.82651 43.0941 6.71973 42.8363 6.71973 42.5675C6.71973 42.2987 6.82651 42.0409 7.01658 41.8508C7.20665 41.6607 7.46444 41.554 7.73324 41.554H18.2434C18.5122 41.554 18.77 41.6607 18.96 41.8508C19.1501 42.0409 19.2569 42.2987 19.2569 42.5675C19.2569 42.8363 19.1501 43.0941 18.96 43.2841C18.77 43.4742 18.5122 43.581 18.2434 43.581Z" fill="#FFF7F2"/>
<path d="M4.27703 43.581H3.26351C2.99471 43.581 2.73692 43.4742 2.54685 43.2841C2.35678 43.0941 2.25 42.8363 2.25 42.5675C2.25 42.2987 2.35678 42.0409 2.54685 41.8508C2.73692 41.6607 2.99471 41.554 3.26351 41.554H4.27703C4.54583 41.554 4.80362 41.6607 4.99369 41.8508C5.18376 42.0409 5.29054 42.2987 5.29054 42.5675C5.29054 42.8363 5.18376 43.0941 4.99369 43.2841C4.80362 43.4742 4.54583 43.581 4.27703 43.581Z" fill="#FFF7F2"/>
</svg>
