<svg width="144" height="144" viewBox="0 0 144 144" fill="none" xmlns="http://www.w3.org/2000/svg">
<path d="M11.25 4.5058C7.54945 4.5058 4.50439 7.54625 4.50439 11.2468V132.742C4.50439 136.443 7.54941 139.506 11.25 139.506H96.7544C100.455 139.506 103.496 136.443 103.496 132.742V119.243C103.502 118.943 103.449 118.645 103.339 118.366C103.229 118.087 103.064 117.833 102.855 117.619C102.645 117.405 102.395 117.234 102.118 117.118C101.842 117.002 101.545 116.942 101.246 116.942C100.946 116.942 100.649 117.002 100.373 117.118C100.097 117.234 99.8462 117.405 99.6366 117.619C99.427 117.833 99.2624 118.087 99.1523 118.366C99.0422 118.645 98.989 118.943 98.9956 119.243V132.742C98.9956 134.028 98.0397 135.006 96.7544 135.006H11.25C9.96456 135.006 9.0088 134.028 9.0088 132.742V11.2468C9.0088 9.96145 9.96452 8.98822 11.25 8.98822H81.0088V20.2514C81.0088 23.9519 84.0494 26.9924 87.75 26.9924H98.9956V33.7557C98.989 34.0554 99.0422 34.3533 99.1523 34.6321C99.2624 34.9109 99.427 35.165 99.6366 35.3793C99.8462 35.5936 100.097 35.7639 100.373 35.8802C100.649 35.9964 100.946 36.0564 101.246 36.0564C101.545 36.0564 101.842 35.9964 102.118 35.8802C102.395 35.7639 102.645 35.5936 102.855 35.3793C103.064 35.165 103.229 34.9109 103.339 34.6321C103.449 34.3533 103.502 34.0554 103.496 33.7557V24.7512C103.5 24.1549 103.268 23.5813 102.85 23.1562L84.8453 5.15175C84.4202 4.73343 83.8464 4.50081 83.25 4.50528L11.25 4.5058ZM85.4912 12.1653L95.8096 22.4926H87.75C86.4646 22.4926 85.4912 21.5369 85.4912 20.2514V12.1653ZM35.9956 22.4926C35.6958 22.4858 35.3977 22.5388 35.1188 22.6488C34.8398 22.7588 34.5857 22.9235 34.3712 23.1331C34.1568 23.3427 33.9864 23.593 33.8701 23.8693C33.7538 24.1457 33.6939 24.4428 33.6939 24.7426C33.6939 25.0425 33.7538 25.3393 33.8701 25.6156C33.9864 25.892 34.1568 26.1423 34.3712 26.3519C34.5857 26.5615 34.8398 26.7262 35.1188 26.8362C35.3977 26.9462 35.6958 26.9992 35.9956 26.9924H69.7456C70.0454 26.9992 70.3435 26.9462 70.6225 26.8362C70.9014 26.7262 71.1556 26.5615 71.37 26.3519C71.5844 26.1423 71.7548 25.892 71.8711 25.6156C71.9875 25.3393 72.0474 25.0425 72.0474 24.7426C72.0474 24.4428 71.9875 24.1457 71.8711 23.8693C71.7548 23.593 71.5844 23.3427 71.37 23.1331C71.1556 22.9235 70.9014 22.7588 70.6225 22.6488C70.3435 22.5388 70.0454 22.4858 69.7456 22.4926H35.9956ZM20.25 35.9969C19.9504 35.9904 19.6525 36.0436 19.3737 36.1537C19.095 36.2638 18.8411 36.4286 18.6269 36.6382C18.4126 36.8478 18.2424 37.098 18.1262 37.3742C18.01 37.6505 17.9502 37.9473 17.9502 38.247C17.9502 38.5467 18.01 38.8432 18.1262 39.1195C18.2424 39.3957 18.4126 39.6462 18.6269 39.8557C18.8411 40.0653 19.095 40.2299 19.3737 40.34C19.6525 40.4501 19.9504 40.5036 20.25 40.497H47.2588C47.5584 40.5036 47.8563 40.4501 48.1351 40.34C48.4138 40.2299 48.6677 40.0653 48.882 39.8557C49.0962 39.6462 49.2664 39.3957 49.3826 39.1195C49.4988 38.8432 49.5587 38.5467 49.5587 38.247C49.5587 37.9473 49.4988 37.6505 49.3826 37.3742C49.2664 37.098 49.0962 36.8478 48.882 36.6382C48.6677 36.4286 48.4138 36.2638 48.1351 36.1537C47.8563 36.0436 47.5584 35.9904 47.2588 35.9969H20.25ZM78.75 35.9969C56.4092 35.9969 38.2544 54.1474 38.2544 76.4882C38.2544 98.829 56.4092 117.001 78.75 117.001C87.3855 117.001 95.3756 114.261 101.953 109.641L109.318 117.006L108.664 117.665C108.244 118.087 108.009 118.657 108.009 119.251C108.009 119.846 108.244 120.416 108.664 120.838L124.343 136.513C128.313 140.483 134.805 140.483 138.775 136.513C142.745 132.543 142.745 126.052 138.775 122.081L123.095 106.401C122.855 106.16 122.562 105.977 122.24 105.865C121.918 105.753 121.575 105.715 121.236 105.755C120.732 105.814 120.263 106.042 119.905 106.401L119.246 107.065L116.442 104.261C114.334 101.791 110.799 105.322 113.269 107.43L116.077 110.238L112.504 113.815L105.504 106.819C113.907 99.3912 119.241 88.5647 119.241 76.4877C119.241 54.1468 101.091 35.9964 78.75 35.9964L78.75 35.9969ZM78.75 40.497C98.6589 40.497 114.759 56.5794 114.759 76.4882C114.759 96.397 98.6589 112.497 78.75 112.497C58.8412 112.497 42.7588 96.397 42.7588 76.4882C42.7588 56.5794 58.8412 40.497 78.75 40.497ZM20.1358 49.5013C17.0216 49.6586 17.2521 54.159 20.2501 54.0014H33.7544C36.7552 54.0014 36.7552 49.5013 33.7544 49.5013H20.1358ZM87.75 51.7425C79.0782 51.7424 72.0044 58.8339 72.0044 67.5057C72.0062 68.5534 72.1295 69.7043 72.3384 70.7269L56.9092 86.1561C56.4844 86.5779 56.2417 87.1527 56.2412 87.7514V96.7513C56.2457 97.9943 57.2614 98.9972 58.5044 98.9925H67.5044C68.1032 98.992 68.6777 98.7535 69.0996 98.3291L71.3408 96.0879C71.7656 95.6661 72.0039 95.0914 72.0044 94.4927V92.2514H74.25C75.4995 92.2559 76.5136 91.2423 76.5088 89.9928V87.7514H78.75C79.3488 87.7509 79.9233 87.5126 80.3452 87.0883L84.5113 82.9178C85.5403 83.1279 86.6973 83.246 87.75 83.2469C96.4219 83.2469 103.496 76.1776 103.496 67.5057C103.496 58.8339 96.4219 51.7424 87.75 51.7425H87.75ZM87.75 56.2426C93.9899 56.2425 98.9957 61.2659 98.9956 67.5057C98.9957 73.7456 93.9899 78.7469 87.75 78.7468C86.6443 78.7457 85.5515 78.5895 84.4937 78.268C83.6974 78.018 82.8279 78.2256 82.2349 78.8133L77.8184 83.2471H74.2456C73.0091 83.2517 72.0088 84.2562 72.0044 85.4928V87.7516H69.7456C68.5091 87.7561 67.5088 88.7563 67.5044 89.9928V93.5656L66.5728 94.4929H60.7456V88.6789L76.4253 73.0037C77.0125 72.4177 77.2274 71.5524 76.9878 70.758C76.6648 69.7006 76.5107 68.5909 76.5088 67.4883C76.5178 61.2563 81.5157 56.2428 87.75 56.2428V56.2426ZM87.75 60.7424C84.0488 60.7424 81.0088 63.8045 81.0088 67.5057C81.0088 71.207 84.0488 74.247 87.75 74.247C91.4513 74.247 94.4956 71.207 94.4956 67.5057C94.4956 63.8045 91.4513 60.7424 87.75 60.7424ZM20.1358 63.0013C17.0216 63.1586 17.2521 67.6632 20.2501 67.5057H29.2544C32.2552 67.5057 32.2552 63.0013 29.2544 63.0013H20.1358ZM87.75 65.2425C89.0193 65.2425 89.9912 66.2365 89.9912 67.5057C89.9912 68.775 89.0193 69.7469 87.75 69.7469C86.4808 69.7469 85.4912 68.775 85.4912 67.5057C85.4912 66.2365 86.4808 65.2425 87.75 65.2425ZM20.25 76.4882C19.9502 76.4814 19.6521 76.5344 19.3732 76.6445C19.0942 76.7545 18.8401 76.9191 18.6256 77.1287C18.4112 77.3383 18.2408 77.5886 18.1245 77.865C18.0082 78.1413 17.9483 78.4381 17.9483 78.738C17.9483 79.0379 18.0082 79.3349 18.1245 79.6113C18.2408 79.8877 18.4112 80.1379 18.6256 80.3475C18.8401 80.5571 19.0942 80.7218 19.3732 80.8318C19.6521 80.9418 19.9502 80.9949 20.25 80.988H26.9956C27.2954 80.9949 27.5935 80.9418 27.8725 80.8318C28.1514 80.7218 28.4056 80.5571 28.62 80.3475C28.8344 80.1379 29.0048 79.8877 29.1211 79.6113C29.2375 79.3349 29.2974 79.0379 29.2974 78.738C29.2974 78.4381 29.2375 78.1413 29.1211 77.865C29.0048 77.5886 28.8344 77.3383 28.62 77.1287C28.4056 76.9191 28.1514 76.7545 27.8725 76.6445C27.5935 76.5344 27.2954 76.4814 26.9956 76.4882H20.25ZM20.25 89.9926C19.9502 89.9858 19.6521 90.0388 19.3732 90.1488C19.0942 90.2588 18.8401 90.4235 18.6256 90.6331C18.4112 90.8427 18.2408 91.093 18.1245 91.3693C18.0082 91.6457 17.9483 91.9428 17.9483 92.2426C17.9483 92.5425 18.0082 92.8393 18.1245 93.1156C18.2408 93.392 18.4112 93.6423 18.6256 93.8519C18.8401 94.0615 19.0942 94.2262 19.3732 94.3362C19.6521 94.4462 19.9502 94.4992 20.25 94.4924H31.4956C31.7954 94.4992 32.0935 94.4462 32.3725 94.3362C32.6514 94.2262 32.9056 94.0615 33.12 93.8519C33.3344 93.6423 33.5048 93.392 33.6211 93.1156C33.7375 92.8393 33.7974 92.5425 33.7974 92.2426C33.7974 91.9428 33.7375 91.6457 33.6211 91.3693C33.5048 91.093 33.3344 90.8427 33.12 90.6331C32.9056 90.4235 32.6514 90.2588 32.3725 90.1488C32.0935 90.0388 31.7954 89.9858 31.4956 89.9926H20.25ZM20.25 103.497C19.9504 103.49 19.6525 103.544 19.3737 103.654C19.095 103.764 18.8411 103.929 18.6269 104.138C18.4126 104.348 18.2424 104.598 18.1262 104.874C18.01 105.15 17.9502 105.447 17.9502 105.747C17.9502 106.047 18.01 106.343 18.1262 106.619C18.2424 106.896 18.4126 107.146 18.6269 107.356C18.8411 107.565 19.095 107.73 19.3737 107.84C19.6525 107.95 19.9504 108.004 20.25 107.997H40.4956C40.7952 108.004 41.0932 107.95 41.3719 107.84C41.6506 107.73 41.9046 107.565 42.1188 107.356C42.333 107.146 42.5032 106.896 42.6194 106.619C42.7356 106.343 42.7955 106.047 42.7955 105.747C42.7955 105.447 42.7356 105.15 42.6194 104.874C42.5032 104.598 42.333 104.348 42.1188 104.138C41.9046 103.929 41.6506 103.764 41.3719 103.654C41.0932 103.544 40.7952 103.49 40.4956 103.497H20.25ZM121.5 111.187L135.585 125.272C137.847 127.534 137.847 131.082 135.585 133.345C133.322 135.607 129.792 135.607 127.529 133.345L113.427 119.243L121.5 111.187ZM20.0259 116.997C20.0229 116.998 20.0199 117 20.0169 117.001C19.4292 117.045 18.8819 117.316 18.4921 117.758C18.1023 118.2 17.9011 118.777 17.9316 119.365C17.962 119.954 18.2217 120.507 18.6551 120.906C19.0884 121.306 19.6608 121.519 20.2498 121.501H29.2542C29.5538 121.508 29.8517 121.455 30.1305 121.345C30.4092 121.234 30.6631 121.07 30.8773 120.86C31.0916 120.651 31.2618 120.4 31.378 120.124C31.4942 119.848 31.554 119.551 31.554 119.251C31.554 118.952 31.4942 118.655 31.378 118.379C31.2618 118.103 31.0916 117.852 30.8773 117.643C30.6631 117.433 30.4092 117.268 30.1305 117.158C29.8517 117.048 29.5538 116.995 29.2542 117.001H20.25C20.1754 116.996 20.1006 116.995 20.0259 116.997H20.0259ZM38.0303 116.997C38.0273 116.998 38.0243 117 38.0213 117.001C37.4336 117.045 36.8863 117.316 36.4965 117.758C36.1067 118.2 35.9055 118.777 35.936 119.365C35.9664 119.954 36.2261 120.507 36.6594 120.906C37.0927 121.305 37.6652 121.519 38.2542 121.501H60.7454C61.045 121.508 61.3429 121.455 61.6217 121.345C61.9004 121.234 62.1543 121.07 62.3685 120.86C62.5828 120.651 62.753 120.4 62.8692 120.124C62.9854 119.848 63.0452 119.551 63.0452 119.251C63.0452 118.952 62.9854 118.655 62.8692 118.379C62.753 118.103 62.5828 117.852 62.3685 117.643C62.1543 117.433 61.9004 117.268 61.6217 117.158C61.3429 117.048 61.045 116.995 60.7454 117.001H38.2542C38.1797 116.996 38.1049 116.995 38.0303 116.997H38.0303Z" fill="#FFF7F2"/>
</svg>
