<svg width="144" height="144" viewBox="0 0 144 144" fill="none" xmlns="http://www.w3.org/2000/svg">
<path d="M129.485 4.7391L106.998 15.9805C106.234 16.3606 105.751 17.1397 105.75 17.993V26.0659L51.7632 80.0527L48.8628 77.1523C47.9527 76.2422 46.5745 76.2523 45.6767 77.1523L38.9311 83.9154C37.4554 85.395 38.55 86.7335 39.2168 87.4002L55.3271 103.511L27.3076 131.535C22.8137 136.029 16.0055 136.176 11.9268 132.097C7.84803 128.018 7.99528 121.21 12.4893 116.716L34.3169 94.8752C36.7782 92.7667 33.2525 89.241 31.144 91.7023L9.30322 113.53C3.20193 119.631 2.8431 129.376 8.73632 135.27C14.6296 141.163 24.3748 140.804 30.4761 134.702L66.854 98.3289C67.7265 97.4512 67.7265 96.0337 66.854 95.156L63.9404 92.2424L117.927 38.2555H126C126.852 38.2532 127.629 37.7701 128.008 37.0075L139.267 14.5033C139.696 13.6362 139.522 12.5923 138.836 11.9104L132.095 5.15148C131.513 4.56811 130.502 4.23021 129.485 4.73832L129.485 4.7391ZM20.25 4.49671C18.2461 4.49756 17.2427 6.92008 18.6592 8.3376L33.75 23.4284V28.3152L28.3184 33.7472H23.4316L8.34082 18.6564C6.92333 17.2399 4.50079 18.2431 4.5 20.2472V38.2472C4.50012 38.8442 4.73723 39.4159 5.15918 39.8378L16.4092 51.088C16.8311 51.5098 17.4033 51.7469 18 51.7469H35.0684L52.8003 69.4791C54.9209 71.688 58.1909 68.418 55.9819 66.2974L37.5908 47.9063C37.1689 47.4845 36.5967 47.2471 36 47.2471H18.9316L9 37.3156V25.6787L20.9092 37.5881C21.3311 38.0098 21.9033 38.247 22.5 38.247H29.25C29.8467 38.2469 30.4189 38.0098 30.8408 37.5881L37.5908 30.8379C38.0128 30.4162 38.2499 29.8438 38.25 29.2471V22.4972C38.2499 21.9003 38.0128 21.3284 37.5908 20.9064L25.6816 8.99704H37.3184L47.25 18.9289V35.9972C47.2501 36.5942 47.4872 37.1662 47.9092 37.5881L66.3003 55.9792C68.4209 58.1881 71.6909 54.9181 69.4819 52.7975L51.75 35.0655V17.9972C51.7499 17.4002 51.5128 16.8282 51.0908 16.4063L39.8408 5.15641C39.4189 4.73462 38.8467 4.49723 38.25 4.49723L20.25 4.49671ZM130.052 9.48909L134.517 13.9406L124.603 33.7555H116.996C116.399 33.751 115.826 33.9835 115.4 34.4019L60.7588 89.0565L54.9492 83.2427L109.586 28.5879C110.013 28.1661 110.253 27.5922 110.254 26.9926V19.3856L130.052 9.48909ZM89.5957 73.8424C87.5765 73.8429 86.5798 76.2971 88.0269 77.7054L106.409 96.0877C106.831 96.5095 107.403 96.7468 108 96.7468H125.068L135 106.678V118.315L123.091 106.406C122.669 105.984 122.097 105.747 121.5 105.747H114.75C114.153 105.747 113.581 105.984 113.159 106.406L106.409 113.156C105.987 113.578 105.75 114.15 105.75 114.747V121.497C105.75 122.094 105.987 122.666 106.409 123.088L118.318 134.997H106.682L96.75 125.065V107.997C96.7499 107.4 96.5127 106.828 96.0908 106.406L77.7085 88.0236C75.5878 85.8146 72.3179 89.0847 74.5268 91.2053L92.25 108.928V125.997C92.2501 126.594 92.4871 127.166 92.9091 127.588L104.159 138.838C104.581 139.259 105.153 139.497 105.75 139.497H123.75C125.754 139.496 126.757 137.073 125.341 135.656L110.25 120.565V115.678L115.682 110.247H120.568L135.659 125.337C137.077 126.754 139.499 125.751 139.5 123.747V105.747C139.5 105.15 139.263 104.578 138.841 104.156L127.591 92.906C127.169 92.4842 126.597 92.2468 126 92.2468H108.932L91.2084 74.5237C90.7848 74.0883 90.2031 73.8424 89.5956 73.8424H89.5957ZM47.272 81.9374L62.0859 96.7513L58.5132 100.324L43.686 85.5102L47.272 81.9374Z" fill="#FFF7F2"/>
</svg>
