        <svg
          class="position-absolute"
          width="100"
          height="100"
          viewBox="0 0 100 100"
          fill="none"
          xmlns="http://www.w3.org/2000/svg"
        >
          <path
            d="M74.5 50V50.5H75H90.625C95.5246 50.5 99.5 54.4754 99.5 59.375V84.375C99.5 89.2746 95.5246 93.25 90.625 93.25H65.625C60.7254 93.25 56.75 89.2746 56.75 84.375V37.5C56.75 20.5105 70.5105 6.75 87.5 6.75H89.0625C91.384 6.75 93.25 8.61599 93.25 10.9375V20.3125C93.25 22.634 91.384 24.5 89.0625 24.5H87.5C80.3293 24.5 74.5 30.3293 74.5 37.5V50ZM18.25 50V50.5H18.75H34.375C39.2746 50.5 43.25 54.4754 43.25 59.375V84.375C43.25 89.2746 39.2746 93.25 34.375 93.25H9.375C4.47536 93.25 0.5 89.2746 0.5 84.375V37.5C0.5 20.5105 14.2605 6.75 31.25 6.75H32.8125C35.134 6.75 37 8.61599 37 10.9375V20.3125C37 22.634 35.134 24.5 32.8125 24.5H31.25C24.0793 24.5 18.25 30.3293 18.25 37.5V50Z"
            stroke="#92400E"
          />
        </svg>