<svg width="144" height="144" viewBox="0 0 144 144" fill="none" xmlns="http://www.w3.org/2000/svg">
<path d="M11.75 27C8.04942 27 5 30.0493 5 33.7498V96.7498C5 100.45 8.04942 103.5 11.75 103.5H43.2896C43.2376 103.928 43.1525 104.416 43.0039 104.985C42.4772 106.999 41.1882 109.697 37.9194 112.496H34.2412C31.2405 112.496 31.2405 116.996 34.2412 116.996H61.25C64.2507 116.996 64.2507 112.496 61.25 112.496H44.1421C45.8967 110.224 46.8678 108.003 47.3589 106.123C47.6157 105.14 47.7149 104.28 47.7676 103.5H61.25C64.2926 103.542 64.2926 98.9571 61.25 99.0001H11.75C10.4646 99.0001 9.5 98.0352 9.5 96.7498V85.4998H61.25C64.2927 85.5424 64.2927 80.9571 61.25 81H9.5V33.7498C9.5 32.4644 10.4646 31.5001 11.75 31.5001H97.25C98.5354 31.5001 99.5 32.4644 99.5 33.7498C99.4583 36.7912 104.042 36.7912 104 33.7498C104 30.0493 100.951 27 97.25 27H11.75ZM74.75 40.4911C71.0494 40.4911 67.9912 43.554 67.9912 47.2545V110.254C67.9912 113.955 71.0494 116.996 74.75 116.996H101.741C104.742 116.996 104.742 112.496 101.741 112.496H74.75C73.4646 112.496 72.4912 111.54 72.4912 110.254V99.0086H101.741C104.742 99.0086 104.742 94.5085 101.741 94.5085H72.4912V53.9955H117.504V60.7586C117.504 63.7593 122.004 63.7593 122.004 60.7586V47.2545C122.004 43.5539 118.946 40.4911 115.246 40.4911H74.75ZM16.2192 44.9603C14.9696 44.9773 13.9723 46.0049 13.9956 47.2545V51.7543C13.9956 54.7551 18.4956 54.7551 18.4956 51.7543V47.2545C18.5193 45.9854 17.4884 44.9458 16.2192 44.9603ZM74.75 44.9943H115.246C116.531 44.9943 117.504 45.9677 117.504 47.2532V49.4944H72.4912V47.2532C72.4912 45.9676 73.4646 44.9943 74.75 44.9943ZM16.2192 58.4636C14.9696 58.4806 13.9723 59.508 13.9956 60.7575V74.2401C13.9956 77.2408 18.4956 77.2408 18.4956 74.2401V60.7575C18.5193 59.4885 17.4884 58.4492 16.2192 58.4636ZM79.2192 58.4636C77.9696 58.4806 76.9723 59.5081 76.9956 60.7575V65.2576C76.9956 68.2583 81.4956 68.2583 81.4956 65.2576V60.7575C81.5194 59.4885 80.4884 58.4492 79.2192 58.4636ZM115.246 67.4988C111.545 67.4988 108.5 70.5395 108.5 74.2401V110.253C108.5 113.954 111.545 116.994 115.246 116.994H133.25C136.951 116.994 139.991 113.954 139.991 110.253V74.2401C139.991 70.5395 136.951 67.4988 133.25 67.4988H115.246ZM79.2192 71.968C77.9762 71.985 76.9816 72.9971 76.9956 74.2401V87.7444C76.9956 90.7451 81.4956 90.7451 81.4956 87.7444V74.2401C81.5092 72.9775 80.4818 71.9537 79.2192 71.968ZM115.246 72.002H133.25C134.535 72.002 135.491 72.9577 135.491 74.2432V76.5044H113.004V74.2411C113.004 72.9557 113.96 71.9999 115.246 71.9999V72.002ZM113.004 81.0065H135.491V103.493H113.004V81.0065ZM52.2456 94.5109H56.75C59.7507 94.5109 59.7507 90.0064 56.75 90.0064H52.1379C49.0295 90.1501 49.2449 94.6549 52.2457 94.5109H52.2456ZM92.7588 103.493C89.758 103.493 89.758 107.993 92.7588 107.993H97.2588C100.26 107.993 100.26 103.493 97.2588 103.493H92.7588ZM113.004 107.993H135.491V110.256C135.491 111.542 134.535 112.498 133.25 112.498H115.246C113.96 112.498 113.004 111.542 113.004 110.256V107.993Z" fill="#FFF7F2"/>
</svg>
