<svg width="75" height="75" viewBox="0 0 75 75" fill="none" xmlns="http://www.w3.org/2000/svg">
<path d="M37.2024 34.4834L22.1582 39.7176C21.7757 39.8467 21.5199 40.2042 21.5157 40.6067V46.2884C21.5024 47.5684 23.4299 47.5684 23.4132 46.2884V41.2792L37.5099 36.3751L51.6165 41.2792V46.2884C51.5598 47.6034 53.5648 47.6034 53.5049 46.2884V40.6067C53.5049 40.2076 53.2523 39.8467 52.8699 39.7176L37.8274 34.4834C37.5665 34.3926 37.4574 34.3959 37.2024 34.4834Z" fill="#FFF7F2"/>
<path fill-rule="evenodd" clip-rule="evenodd" d="M35.3299 6.60492C40.3866 5.40742 45.4391 8.48909 46.6499 13.4891C47.8557 18.4891 44.7541 23.4933 39.6966 24.6866C34.6366 25.8799 29.5841 22.8024 28.3766 17.8024C27.1666 12.8024 30.2699 7.79992 35.3299 6.60492ZM34.8874 4.76992C28.8424 6.19742 25.0874 12.2349 26.5374 18.2374C27.9857 24.2399 34.0924 27.9508 40.1391 26.5233C46.1857 25.0958 49.9357 19.0574 48.4857 13.0549C47.0357 7.05325 40.9291 3.34159 34.8874 4.76992Z" fill="#FFF7F2"/>
<path d="M27.9832 31.1451H47.0407C49.5748 31.1451 51.2123 31.5884 52.5565 32.5684C53.9023 33.5492 55.0273 35.1684 56.259 37.7117L62.0057 49.5784C62.8032 51.2242 62.9857 52.4776 62.7248 53.3584C62.464 54.2442 61.7665 54.9701 60.2165 55.5676L54.1498 57.9251C53.1523 58.3151 52.4048 58.2126 51.7798 57.8776C51.1598 57.5434 50.6648 56.9226 50.4048 56.1801C49.884 54.6926 50.2098 52.9167 52.244 52.0442C54.0507 51.2676 57.1965 49.9917 57.1965 49.9917C58.4907 49.5792 57.704 47.6392 56.4882 48.2426C56.4882 48.2426 53.3465 49.5184 51.4982 50.3126C48.6157 51.5501 47.8215 54.5317 48.6207 56.8059C48.7248 57.1092 48.8632 57.4009 49.0198 57.6784C46.6065 62.2917 42.5698 65.7201 37.509 68.4809C32.449 65.7201 28.4157 62.2917 25.9982 57.6784C26.159 57.4009 26.2932 57.1092 26.4015 56.8059C27.2007 54.5317 26.4065 51.5501 23.519 50.3126C21.6748 49.5184 18.5323 48.2426 18.5323 48.2426C17.3132 47.6392 16.5273 49.5792 17.8257 49.9917C17.8257 49.9917 20.9673 51.2684 22.7765 52.0442C24.8082 52.9167 25.1382 54.6926 24.6173 56.1801C24.3565 56.9226 23.8573 57.5434 23.2373 57.8776C22.6173 58.2126 21.8657 58.3151 20.8673 57.9251L14.8048 55.5684C13.2557 54.9701 12.5557 54.2442 12.2948 53.3592C12.0315 52.4776 12.2165 51.2242 13.0107 49.5792L18.7657 37.7126C19.9948 35.1692 21.119 33.5501 22.464 32.5692C23.8115 31.5884 25.4473 31.1451 27.9832 31.1451ZM27.9832 29.2617C25.2223 29.2617 23.0873 29.7692 21.3507 31.0376C19.614 32.3042 18.3507 34.2267 17.0623 36.8876L11.3165 48.7542C10.4082 50.6284 10.0223 52.3517 10.4782 53.8976C10.939 55.4426 12.244 56.6051 14.124 57.3351L20.1865 59.6917C21.6282 60.2517 23.0348 60.1342 24.1315 59.5434C24.319 59.4434 24.4965 59.3226 24.6657 59.1959C27.4132 64.0567 31.7748 67.6559 37.0665 70.4551C37.3448 70.6026 37.6782 70.6026 37.9523 70.4551C43.244 67.6559 47.609 64.0567 50.3532 59.1959C50.5257 59.3226 50.6998 59.4442 50.8907 59.5434C51.9848 60.1334 53.3957 60.2517 54.8357 59.6917L60.9032 57.3351C62.7832 56.6051 64.0848 55.4417 64.5407 53.8976C64.9965 52.3526 64.619 50.6284 63.7073 48.7542L57.9607 36.8876C56.6715 34.2276 55.4057 32.3042 53.669 31.0376C51.9373 29.7701 49.8015 29.2617 47.0415 29.2617H27.9832Z" fill="#FFF7F2"/>
<path fill-rule="evenodd" clip-rule="evenodd" d="M45.4574 48.4284L35.6783 58.2943C35.6133 58.3593 35.5349 58.3593 35.4699 58.2943L29.5716 52.3951L31.4024 50.5201L34.9133 54.0401C35.2824 54.4051 35.8816 54.4051 36.2508 54.0401L43.5066 46.7793L45.4574 48.4284ZM43.5824 44.7876C42.9833 44.8518 42.5016 45.1168 42.1791 45.4384L35.5874 52.0309L32.7441 49.1918C31.9674 48.4059 30.6524 48.4059 29.8749 49.1918L28.2308 50.8626C27.4491 51.6484 27.4491 52.9384 28.2308 53.7243L34.1424 59.6351C35.0441 60.5376 36.1083 60.5468 37.0074 59.6434L46.7991 49.7609C47.6066 48.9451 47.4408 47.5993 46.7891 46.9093L45.1716 45.3076C44.7099 44.8568 44.1033 44.7309 43.5824 44.7876Z" fill="#FFF7F2"/>
</svg>
