<svg width="75" height="75" viewBox="0 0 75 75" fill="none" xmlns="http://www.w3.org/2000/svg">
<g clip-path="url(#clip0_646_1345)">
<path d="M7.39773 48.853C6.79098 48.853 6.29907 49.3449 6.29907 49.9517C6.29907 50.5584 6.79098 51.0503 7.39773 51.0503H16.9927C17.5995 51.0503 18.0914 50.5584 18.0914 49.9517C18.0914 49.3449 17.5995 48.853 16.9927 48.853H7.39773Z" fill="#FFF7F2"/>
<path d="M73.7673 56.8917L69.1413 52.2658L69.1424 15.0916C69.1424 14.082 68.321 13.2605 67.3113 13.2605L56.7364 13.2598C52.5731 9.27474 46.7234 6.93752 40.9056 6.95715C34.789 6.95715 29.2222 9.35429 25.0936 13.2576L14.8732 13.2566C14.8732 13.2566 14.8732 13.2566 14.8731 13.2566C14.2663 13.2566 13.7744 13.7483 13.7744 14.3551C13.7744 14.962 14.2662 15.4538 14.8729 15.4539L23.0518 15.4548C22.4449 16.1988 21.8839 16.9815 21.3722 17.7982L2.1982 17.797V15.4535L9.74585 15.4539C10.3526 15.4539 10.8445 14.9621 10.8445 14.3552C10.8445 13.7483 10.3528 13.2566 9.74585 13.2566L1.83183 13.2561C0.822091 13.2561 0.00073244 14.0775 0.00073244 15.0872L0 56.1005C0 57.1103 0.821359 57.9316 1.8311 57.9316L16.7184 57.9327C17.3251 57.9327 17.8171 57.4409 17.8171 56.834C17.8171 56.2271 17.3253 55.7353 16.7184 55.7353L2.19732 55.7343L2.1982 19.9943L20.1556 19.9955C19.4498 21.4546 18.8948 22.9994 18.508 24.609H7.47089C6.86414 24.609 6.37223 25.1009 6.37223 25.7076V34.4969C6.37223 35.1037 6.86414 35.5956 7.47089 35.5956H18.5624C18.8209 36.6257 19.1489 37.6284 19.5412 38.5986H7.39765C6.79089 38.5986 6.29899 39.0905 6.29899 39.6972C6.29899 40.304 6.79089 40.7959 7.39765 40.7959H20.5681C21.1148 41.8207 21.7358 42.8002 22.4254 43.7257H7.39765C6.79089 43.7257 6.29899 44.2176 6.29899 44.8243C6.29899 45.4311 6.79089 45.923 7.39765 45.923H24.2855C28.4807 50.2977 34.3805 53.0256 40.9058 53.0256C44.9348 53.0256 48.8344 51.9836 52.269 50.0327L54.4657 52.2295C54.8763 52.6401 55.4157 52.8454 55.9551 52.8454C56.4364 52.8454 56.9171 52.6808 57.3069 52.3538L60.6912 55.7383L21.8455 55.7355C21.2387 55.7355 20.7468 56.2273 20.7468 56.8342C20.7468 57.4411 21.2386 57.9328 21.8455 57.9328L26.6394 57.9331L25.6761 61.4474L23.7765 61.4469C21.0454 61.4469 18.8236 63.6687 18.8236 66.3997V66.9399C18.8236 67.5467 19.3153 68.0386 19.9221 68.0386L49.2193 68.0428H49.2194C49.5108 68.0428 49.7901 67.9271 49.9962 67.7212C50.2023 67.515 50.3181 67.2357 50.3181 66.9442V66.4039C50.3181 63.673 48.0963 61.4512 45.3653 61.4512L43.4658 61.4507L42.5018 57.9341L62.8888 57.9356L67.8061 62.8531C68.6024 63.6492 69.6609 64.0877 70.7867 64.0877C71.9126 64.0877 72.9711 63.6492 73.7674 62.8531C75.4109 61.2095 75.4109 58.5353 73.7673 56.8917ZM48.0636 65.8454L21.0776 65.8414C21.3364 64.5888 22.448 63.6442 23.776 63.6442L45.3649 63.6485C46.6931 63.6485 47.8048 64.5929 48.0636 65.8454ZM41.187 61.4504L27.9543 61.4478L28.9178 57.9333L40.2231 57.9341L41.187 61.4504ZM66.9451 17.8012L60.4493 17.8008C59.9413 16.9873 59.3829 16.2042 58.7753 15.4573L66.9451 15.4579V17.8012ZM8.56955 33.3984V26.8064H18.0927C17.948 27.848 17.8715 28.9109 17.8715 29.9915C17.8715 31.1489 17.9583 32.2864 18.1239 33.3984H8.56955ZM20.0689 29.9915C20.0689 18.502 29.4163 9.15462 40.9058 9.15462C51.2475 9.15462 59.9062 16.5587 61.4938 26.76C61.5871 27.3596 62.1489 27.7705 62.7483 27.6766C63.3479 27.5833 63.7584 27.0216 63.6649 26.4221C63.3161 24.1811 62.6351 22.0182 61.6608 19.9983L66.9449 19.9987L66.9442 50.0687L63.2684 46.3928C63.5865 46.0143 63.7607 45.5411 63.7607 45.0408C63.7607 44.4783 63.5415 43.9494 63.1438 43.5515L60.948 41.3556C62.6086 38.4326 63.617 35.1609 63.8742 31.7446C63.9198 31.1396 63.4663 30.6121 62.8611 30.5665C62.2563 30.5221 61.7288 30.9745 61.6831 31.5796C60.8702 42.3733 51.7437 50.8283 40.9058 50.8283C29.4163 50.8284 20.0689 41.481 20.0689 29.9915ZM54.1692 48.8255C55.0186 48.2261 55.8323 47.567 56.6033 46.8488C57.7809 45.7517 58.8296 44.547 59.7409 43.2562L61.5256 45.0408L55.9551 50.6113L54.1692 48.8255ZM72.2136 61.2993C71.8325 61.6804 71.3256 61.8903 70.7867 61.8903C70.2478 61.8903 69.7409 61.6804 69.3598 61.2993L58.8671 50.8066L61.7209 47.9527L72.2135 58.4454C73.0003 59.2323 73.0003 60.5125 72.2136 61.2993Z" fill="#FFF7F2"/>
<path d="M40.9058 11.3442C30.6238 11.3442 22.2588 19.7093 22.2588 29.9913C22.2588 35.9299 25.1275 41.5665 29.9323 45.069C30.4226 45.4266 31.1099 45.3186 31.4673 44.8283C31.8248 44.338 31.7171 43.6507 31.2266 43.2933C26.9873 40.2028 24.4561 35.23 24.4561 29.9911C24.4561 20.9207 31.8355 13.5414 40.9058 13.5414C49.9762 13.5414 57.3556 20.9207 57.3556 29.9911C57.3556 39.0615 49.9762 46.4409 40.9058 46.4409C39.0377 46.4409 37.2053 46.1305 35.4596 45.5183C34.8868 45.3172 34.26 45.6189 34.0593 46.1914C33.8584 46.764 34.1599 47.3909 34.7324 47.5917C36.7123 48.2862 38.7892 48.6382 40.9058 48.6382C51.1878 48.6382 59.5529 40.2731 59.5529 29.9911C59.5529 19.7091 51.188 11.3442 40.9058 11.3442Z" fill="#FFF7F2"/>
<path d="M41.4279 27.1534C42.0347 27.1534 42.5266 26.6615 42.5266 26.0547C42.5266 25.448 42.0347 24.9561 41.4279 24.9561H38.1104C37.5036 24.9561 37.0117 25.448 37.0117 26.0547V33.928C37.0117 34.5348 37.5036 35.0267 38.1104 35.0267H41.4279C42.0347 35.0267 42.5266 34.5348 42.5266 33.928C42.5266 33.3213 42.0347 32.8293 41.4279 32.8293H39.209V31.0901H41.1833C41.79 31.0901 42.2819 30.5982 42.2819 29.9914C42.2819 29.3847 41.79 28.8928 41.1833 28.8928H39.209V27.1534H41.4279Z" fill="#FFF7F2"/>
<path d="M30.8999 32.8659C30.1395 32.8659 29.4087 32.5605 28.945 32.049C28.5376 31.5995 27.8428 31.5653 27.3931 31.9726C26.9434 32.38 26.9094 33.0748 27.3168 33.5245C28.2031 34.5023 29.509 35.0632 30.8998 35.0632C32.6254 35.0632 34.0752 33.9581 34.3471 32.4355C34.5523 31.2856 34.0358 29.7854 31.9699 29.0235C31.3061 28.7818 30.2174 28.3849 29.8036 28.1522C29.6879 28.0892 29.6378 27.9762 29.6543 27.816C29.6773 27.5943 29.8426 27.3148 30.2378 27.1957C31.3007 26.8757 32.2961 27.657 32.3274 27.682C32.7919 28.0667 33.4804 28.0053 33.8691 27.5426C34.2595 27.0782 34.1994 26.3851 33.7349 25.9946C33.6581 25.9302 31.8285 24.4215 29.6039 25.0917C28.4269 25.4462 27.5888 26.4268 27.4684 27.5899C27.3602 28.6367 27.8521 29.5916 28.7525 30.0819C29.2052 30.343 30.2433 30.7364 31.2093 31.0851C31.4617 31.1781 32.2778 31.5228 32.1837 32.0494C32.1125 32.4508 31.6126 32.8659 30.8999 32.8659Z" fill="#FFF7F2"/>
<path d="M55.1136 29.9915C55.1136 27.195 52.8385 24.9199 50.042 24.9199C47.2456 24.9199 44.9705 27.195 44.9705 29.9915C44.9705 32.7879 47.2456 35.0631 50.042 35.0631C52.8385 35.0631 55.1136 32.7879 55.1136 29.9915ZM47.1678 29.9915C47.1678 28.4066 48.4572 27.1172 50.042 27.1172C51.6269 27.1172 52.9163 28.4066 52.9163 29.9915C52.9163 31.5763 51.6269 32.8657 50.042 32.8657C48.4572 32.8657 47.1678 31.5763 47.1678 29.9915Z" fill="#FFF7F2"/>
</g>
<defs>
<clipPath id="clip0_646_1345">
<rect width="75" height="75" fill="white"/>
</clipPath>
</defs>
</svg>
